<?xml version="1.0" encoding="UTF-8"?>
<svg xmlns="http://www.w3.org/2000/svg" xmlns:xlink="http://www.w3.org/1999/xlink" width="16px" height="16px" viewBox="0 0 16 16" version="1.1">
<g id="surface1">
<path style=" stroke:none;fill-rule:nonzero;fill:rgb(11.372549%,11.372549%,10.588235%);fill-opacity:1;" d="M 8.339844 1.234375 C 8.339844 1.914062 7.796875 2.464844 7.121094 2.464844 C 6.445312 2.464844 5.910156 1.90625 5.910156 1.234375 C 5.910156 0.558594 6.457031 0 7.121094 0 C 7.796875 0 8.339844 0.550781 8.339844 1.234375 Z M 8.339844 1.234375 "/>
<path style=" stroke:none;fill-rule:nonzero;fill:rgb(11.372549%,11.372549%,10.588235%);fill-opacity:1;" d="M 14.105469 5.539062 C 13.984375 4.882812 13.746094 4.257812 13.394531 3.6875 C 12.40625 2.175781 10.742188 1.25 8.941406 1.222656 C 8.285156 1.234375 7.628906 1.363281 7.019531 1.617188 C 5.496094 2.183594 4.40625 3.195312 3.777344 3.902344 C 3.960938 4.714844 4.144531 5.527344 4.332031 6.351562 L 11.613281 10.375 L 11.613281 10.367188 L 11.621094 10.375 L 13.949219 9.523438 C 14.226562 8.5625 14.457031 7.132812 14.105469 5.539062 Z M 14.105469 5.539062 "/>
<path style=" stroke:none;fill-rule:nonzero;fill:rgb(11.372549%,11.372549%,10.588235%);fill-opacity:1;" d="M 4.976562 6.171875 C 4.976562 6.171875 5.199219 7.777344 3.332031 8.535156 C 1.46875 9.292969 0.882812 8.226562 0.191406 9.65625 C -0.5 11.085938 0.875 9.777344 1.28125 9.859375 C 1.6875 9.945312 3.933594 9.972656 4.515625 9.722656 C 5.394531 9.347656 6.066406 8.648438 6.417969 7.265625 C 6.769531 5.882812 4.976562 6.171875 4.976562 6.171875 Z M 4.976562 6.171875 "/>
<path style=" stroke:none;fill-rule:nonzero;fill:rgb(11.372549%,11.372549%,10.588235%);fill-opacity:1;" d="M 9.050781 8.601562 C 9.050781 8.601562 7.398438 8.515625 7.40625 10.550781 C 7.417969 12.589844 5.984375 12.496094 4.886719 13.597656 C 3.386719 15.101562 3.953125 12.894531 4.285156 12.652344 C 6.328125 11.167969 5.964844 11.019531 5.976562 10.375 C 5.984375 9.414062 6.371094 8.515625 7.507812 7.667969 C 8.644531 6.816406 9.050781 8.601562 9.050781 8.601562 Z M 9.050781 8.601562 "/>
<path style=" stroke:none;fill-rule:nonzero;fill:rgb(11.372549%,11.372549%,10.588235%);fill-opacity:1;" d="M 11.277344 9.964844 C 11.277344 9.964844 9.726562 10.367188 9.734375 12.402344 C 9.746094 14.4375 10.964844 14.605469 9.902344 15.761719 C 9.246094 16.472656 9.273438 15.417969 9.300781 14.820312 C 9.320312 14.410156 8.203125 12.382812 8.203125 11.738281 C 8.210938 10.777344 8.597656 9.878906 9.734375 9.03125 C 10.871094 8.179688 11.277344 9.964844 11.277344 9.964844 Z M 11.277344 9.964844 "/>
<path style=" stroke:none;fill-rule:nonzero;fill:rgb(11.372549%,11.372549%,10.588235%);fill-opacity:1;" d="M 16 5.371094 C 16 6.050781 15.453125 6.601562 14.78125 6.601562 C 14.105469 6.601562 13.5625 6.050781 13.5625 5.371094 C 13.5625 4.6875 14.105469 4.136719 14.78125 4.136719 C 15.453125 4.144531 16 4.695312 16 5.371094 Z M 16 5.371094 "/>
</g>
</svg>
